<svg width="20" height="15" viewBox="0 0 20 15" fill="none" xmlns="http://www.w3.org/2000/svg">
<path d="M2.6321 9.64737C2.9441 9.88716 3.44982 9.8871 3.76171 9.64723C4.07359 9.40735 4.07352 9.01853 3.76152 8.77874L1.92865 7.37004L4.69935 5.23981C6.37179 3.95398 8.74599 3.43006 11.018 3.79813C11.4497 3.86805 11.8734 3.65569 11.9643 3.32381C12.0552 2.99193 11.779 2.66621 11.3474 2.59629C8.55238 2.14354 5.62801 2.78881 3.56971 4.37132L0.234126 6.93585C-0.0778355 7.1757 -0.077798 7.56461 0.234239 7.8044L2.6321 9.64737Z" fill="white"/>
<path d="M18.937 6.93522L16.5392 5.09228C16.2272 4.85249 15.7214 4.85255 15.4096 5.09242C15.0977 5.3323 15.0977 5.72112 15.4097 5.96091L17.2426 7.36961L14.4719 9.49984C12.7995 10.7857 10.4253 11.3096 8.15322 10.9415C7.72155 10.8716 7.2979 11.084 7.20696 11.4158C7.11601 11.7477 7.39222 12.0734 7.82388 12.1434C10.6189 12.5961 13.5433 11.9508 15.6016 10.3683L18.9371 7.8038C19.2491 7.56392 19.2491 7.17501 18.937 6.93522Z" fill="white"/>
<path d="M5.59192 7.3698C5.59192 7.70896 5.94952 7.9839 6.39066 7.9839C6.83179 7.9839 7.18939 7.70896 7.18939 7.3698C7.18939 6.3524 8.26235 5.52746 9.58565 5.52746C10.0268 5.52746 10.3844 5.25252 10.3844 4.91336C10.3844 4.5742 10.0268 4.29926 9.58565 4.29926C7.38008 4.29923 5.59192 5.67404 5.59192 7.3698Z" fill="white"/>
<path d="M11.9819 7.36981C11.9819 8.38721 10.909 9.21214 9.58567 9.21214C9.14453 9.21214 8.78693 9.48708 8.78693 9.82625C8.78693 10.1654 9.14453 10.4403 9.58567 10.4403C11.7912 10.4403 13.5794 9.06553 13.5794 7.36978C13.5794 7.03062 13.2218 6.75568 12.7807 6.75568C12.3395 6.75568 11.9819 7.03065 11.9819 7.36981Z" fill="white"/>
<path d="M18.9361 0.179865C18.6241 -0.0599551 18.1184 -0.0599551 17.8064 0.179865L0.233943 13.6903C-0.0779812 13.9302 -0.0779812 14.319 0.233943 14.5588C0.545868 14.7986 1.05163 14.7986 1.36355 14.5588L18.9361 1.04835C19.248 0.808534 19.248 0.419686 18.9361 0.179865Z" fill="white"/>
</svg>
